<?xml version="1.0" encoding="UTF-8"?>
<!DOCTYPE svg PUBLIC "-//W3C//DTD SVG 1.1//EN" "http://www.w3.org/Graphics/SVG/1.1/DTD/svg11.dtd">
<svg xmlns="http://www.w3.org/2000/svg" version="1.1" width="512px" height="512px" style="shape-rendering:geometricPrecision; text-rendering:geometricPrecision; image-rendering:optimizeQuality; fill-rule:evenodd; clip-rule:evenodd" xmlns:xlink="http://www.w3.org/1999/xlink">
    <g><path style="opacity:0.989" fill="#000000" d="M 232.5,-0.5 C 247.833,-0.5 263.167,-0.5 278.5,-0.5C 368.144,10.3879 435.644,54.7213 481,132.5C 497.695,163.971 507.861,197.304 511.5,232.5C 511.5,247.833 511.5,263.167 511.5,278.5C 500.612,368.144 456.279,435.644 378.5,481C 347.029,497.695 313.696,507.861 278.5,511.5C 263.167,511.5 247.833,511.5 232.5,511.5C 142.856,500.612 75.3562,456.279 30,378.5C 13.3053,347.029 3.1386,313.696 -0.5,278.5C -0.5,263.167 -0.5,247.833 -0.5,232.5C 10.3875,142.857 54.7208,75.3573 132.5,30C 163.971,13.3053 197.304,3.1386 232.5,-0.5 Z M 242.5,102.5 C 306.702,100.342 355.535,126.342 389,180.5C 419.272,241.028 414.272,298.362 374,352.5C 330.939,400.629 277.773,417.462 214.5,403C 149.315,381.474 112.148,336.641 103,268.5C 100.357,204.273 126.19,155.44 180.5,122C 200.059,111.534 220.725,105.034 242.5,102.5 Z"/></g>
    <g><path style="opacity:0.991" fill="#000000" d="M 240.5,120.5 C 299.022,117.007 343.522,140.007 374,189.5C 394.468,230.211 395.801,271.545 378,313.5C 355.225,357.819 319.059,383.319 269.5,390C 210.352,393.681 165.852,370.181 136,319.5C 116.482,279.296 115.482,238.63 133,197.5C 155.737,153.548 191.571,127.881 240.5,120.5 Z"/></g>
</svg>
