<?xml version="1.0" encoding="UTF-8"?>
<!DOCTYPE svg PUBLIC "-//W3C//DTD SVG 1.1//EN" "http://www.w3.org/Graphics/SVG/1.1/DTD/svg11.dtd">
<svg xmlns="http://www.w3.org/2000/svg" version="1.1" width="100px" height="100px" style="shape-rendering:geometricPrecision; text-rendering:geometricPrecision; image-rendering:optimizeQuality; fill-rule:evenodd; clip-rule:evenodd" xmlns:xlink="http://www.w3.org/1999/xlink">
<g><path style="opacity:1" fill="#00a1e8" d="M -0.5,-0.5 C 32.8333,-0.5 66.1667,-0.5 99.5,-0.5C 99.5,32.8333 99.5,66.1667 99.5,99.5C 66.1667,99.5 32.8333,99.5 -0.5,99.5C -0.5,66.1667 -0.5,32.8333 -0.5,-0.5 Z"/></g>
<g><path style="opacity:1" fill="#fefffe" d="M 25.5,17.5 C 28.0444,17.1043 30.2111,17.771 32,19.5C 41,34.5 50,49.5 59,64.5C 61.7946,49.9417 64.1279,35.275 66,20.5C 67.5808,17.4466 69.9141,16.78 73,18.5C 71.6096,38.2394 69.2763,57.906 66,77.5C 63.8225,81.0655 61.1558,81.3988 58,78.5C 49,63.5 40,48.5 31,33.5C 29.2015,48.8187 27.5348,64.1521 26,79.5C 24.4192,82.5534 22.0859,83.22 19,81.5C 19.6692,59.9805 21.8358,38.6472 25.5,17.5 Z"/></g>
</svg>
