<?xml version="1.0" encoding="UTF-8"?>
<svg version="1.1" xmlns="http://www.w3.org/2000/svg" width="100" height="100">
<path d="M0 0 C33 0 66 0 100 0 C100 33 100 66 100 100 C67 100 34 100 0 100 C0 67 0 34 0 0 Z " fill="#00A2E8" transform="translate(0,0)"/>
<path d="M0 0 C2.32641602 -0.22631836 2.32641602 -0.22631836 5 0 C6.49975586 1.47436523 6.49975586 1.47436523 7.77734375 3.62109375 C8.53313721 4.85641846 8.53313721 4.85641846 9.30419922 6.11669922 C9.86381348 7.06818848 10.42342773 8.01967773 11 9 C12.01467765 10.65243233 13.02942389 12.30482332 14.04580688 13.95620728 C15.90095905 16.98181301 17.73019722 20.02302364 19.5625 23.0625 C22.37023361 27.71123077 25.18232072 32.35729043 28 37 C28.52964355 37.8751123 29.05928711 38.75022461 29.60498047 39.65185547 C30.70822457 41.45230231 31.8486716 43.22991545 33 45 C33.33 45 33.66 45 34 45 C34.17128418 43.74340576 34.34256836 42.48681152 34.51904297 41.19213867 C35.15609182 36.53381422 35.80330572 31.87694944 36.45361328 27.22045898 C36.73373811 25.20424186 37.01109831 23.18763863 37.28564453 21.1706543 C37.6805705 18.27286716 38.08539222 15.37661042 38.4921875 12.48046875 C38.67356766 11.12564644 38.67356766 11.12564644 38.85861206 9.74345398 C39.03857224 8.4824865 39.03857224 8.4824865 39.22216797 7.19604492 C39.3243161 6.45658127 39.42646423 5.71711761 39.53170776 4.95524597 C40 3 40 3 42 0 C44.5625 -0.25 44.5625 -0.25 47 0 C48.57857124 1.57857124 48.14954687 3.14962903 48.15380859 5.33813477 C48.09216654 11.16692719 47.37607848 16.82823351 46.5390625 22.58984375 C46.31311905 24.18935631 46.31311905 24.18935631 46.08261108 25.82118225 C45.76491504 28.05616891 45.44370974 30.29065932 45.11914062 32.5246582 C44.62311553 35.95051535 44.14294114 39.37834942 43.6640625 42.80664062 C43.3525081 44.98451048 43.04004064 47.16224996 42.7265625 49.33984375 C42.58376862 50.36480453 42.44097473 51.38976532 42.29385376 52.44578552 C42.15385956 53.39429886 42.01386536 54.34281219 41.86962891 55.32006836 C41.68975937 56.57055214 41.68975937 56.57055214 41.5062561 57.84629822 C41 60 41 60 39 63 C36.54858398 63.41381836 36.54858398 63.41381836 34 63 C32.50024414 61.52563477 32.50024414 61.52563477 31.22265625 59.37890625 C30.46686279 58.14358154 30.46686279 58.14358154 29.69580078 56.88330078 C29.13618652 55.93181152 28.57657227 54.98032227 28 54 C26.98532235 52.34756767 25.97057611 50.69517668 24.95419312 49.04379272 C23.09904095 46.01818699 21.26980278 42.97697636 19.4375 39.9375 C17.95790509 37.4877525 16.47719366 35.03868158 14.99609375 32.58984375 C14.64598236 32.0106015 14.29587097 31.43135925 13.93515015 30.83456421 C11.33025865 26.53044284 8.68307834 22.25573416 6 18 C5.44749223 22.65888071 4.89619147 27.31790219 4.34594727 31.97705078 C4.15909421 33.55781797 3.97192707 35.13854808 3.78442383 36.71923828 C3.51298174 39.00803801 3.24277253 41.29698098 2.97265625 43.5859375 C2.88456696 44.3254364 2.79647766 45.0649353 2.70571899 45.82684326 C2.14424755 50.59075009 1.67397259 55.35294439 1.34155273 60.13916016 C1 62 1 62 -1 65 C-3.5625 65.25 -3.5625 65.25 -6 65 C-7 64 -7 64 -7.13363647 61.67381287 C-7.11696874 54.62828999 -6.73611829 47.72511954 -5.9765625 40.72265625 C-5.87032562 39.70827988 -5.76408875 38.6939035 -5.65463257 37.64878845 C-5.43075882 35.52846601 -5.20373078 33.40847437 -4.97363281 31.28881836 C-4.62333026 28.04704788 -4.2876657 24.80397761 -3.953125 21.56054688 C-3.73264466 19.48949012 -3.51132063 17.41852297 -3.2890625 15.34765625 C-3.14049301 13.90073143 -3.14049301 13.90073143 -2.98892212 12.42457581 C-2.49667013 7.98302457 -2.01396569 4.05948315 0 0 Z " fill="#FFFFFF" transform="translate(26,18)"/>
</svg>
