<?xml version="1.0" encoding="UTF-8"?>
<svg version="1.1" xmlns="http://www.w3.org/2000/svg" width="500" height="100">
<path d="M0 0 C165 0 330 0 500 0 C500 33 500 66 500 100 C335 100 170 100 0 100 C0 67 0 34 0 0 Z " fill="#00A2E8" transform="translate(0,0)"/>
<path d="M0 0 C2.32641602 -0.22631836 2.32641602 -0.22631836 5 0 C6.49975586 1.47436523 6.49975586 1.47436523 7.77734375 3.62109375 C8.53313721 4.85641846 8.53313721 4.85641846 9.30419922 6.11669922 C9.86381348 7.06818848 10.42342773 8.01967773 11 9 C12.01467765 10.65243233 13.02942389 12.30482332 14.04580688 13.95620728 C15.90095905 16.98181301 17.73019722 20.02302364 19.5625 23.0625 C22.37023361 27.71123077 25.18232072 32.35729043 28 37 C28.52964355 37.8751123 29.05928711 38.75022461 29.60498047 39.65185547 C30.70822457 41.45230231 31.8486716 43.22991545 33 45 C33.33 45 33.66 45 34 45 C34.17128418 43.74340576 34.34256836 42.48681152 34.51904297 41.19213867 C35.15609182 36.53381422 35.80330572 31.87694944 36.45361328 27.22045898 C36.73373811 25.20424186 37.01109831 23.18763863 37.28564453 21.1706543 C37.6805705 18.27286716 38.08539222 15.37661042 38.4921875 12.48046875 C38.67356766 11.12564644 38.67356766 11.12564644 38.85861206 9.74345398 C39.03857224 8.4824865 39.03857224 8.4824865 39.22216797 7.19604492 C39.3243161 6.45658127 39.42646423 5.71711761 39.53170776 4.95524597 C40 3 40 3 42 0 C44.5625 -0.25 44.5625 -0.25 47 0 C48.57857124 1.57857124 48.14954687 3.14962903 48.15380859 5.33813477 C48.09216654 11.16692719 47.37607848 16.82823351 46.5390625 22.58984375 C46.31311905 24.18935631 46.31311905 24.18935631 46.08261108 25.82118225 C45.76491504 28.05616891 45.44370974 30.29065932 45.11914062 32.5246582 C44.62311553 35.95051535 44.14294114 39.37834942 43.6640625 42.80664062 C43.3525081 44.98451048 43.04004064 47.16224996 42.7265625 49.33984375 C42.58376862 50.36480453 42.44097473 51.38976532 42.29385376 52.44578552 C42.15385956 53.39429886 42.01386536 54.34281219 41.86962891 55.32006836 C41.68975937 56.57055214 41.68975937 56.57055214 41.5062561 57.84629822 C41 60 41 60 39 63 C36.54858398 63.41381836 36.54858398 63.41381836 34 63 C32.50024414 61.52563477 32.50024414 61.52563477 31.22265625 59.37890625 C30.46686279 58.14358154 30.46686279 58.14358154 29.69580078 56.88330078 C29.13618652 55.93181152 28.57657227 54.98032227 28 54 C26.98532235 52.34756767 25.97057611 50.69517668 24.95419312 49.04379272 C23.09904095 46.01818699 21.26980278 42.97697636 19.4375 39.9375 C17.95790509 37.4877525 16.47719366 35.03868158 14.99609375 32.58984375 C14.64598236 32.0106015 14.29587097 31.43135925 13.93515015 30.83456421 C11.33025865 26.53044284 8.68307834 22.25573416 6 18 C5.44749223 22.65888071 4.89619147 27.31790219 4.34594727 31.97705078 C4.15909421 33.55781797 3.97192707 35.13854808 3.78442383 36.71923828 C3.51298174 39.00803801 3.24277253 41.29698098 2.97265625 43.5859375 C2.88456696 44.3254364 2.79647766 45.0649353 2.70571899 45.82684326 C2.14424755 50.59075009 1.67397259 55.35294439 1.34155273 60.13916016 C1 62 1 62 -1 65 C-3.5625 65.25 -3.5625 65.25 -6 65 C-7 64 -7 64 -7.13363647 61.67381287 C-7.11696874 54.62828999 -6.73611829 47.72511954 -5.9765625 40.72265625 C-5.87032562 39.70827988 -5.76408875 38.6939035 -5.65463257 37.64878845 C-5.43075882 35.52846601 -5.20373078 33.40847437 -4.97363281 31.28881836 C-4.62333026 28.04704788 -4.2876657 24.80397761 -3.953125 21.56054688 C-3.73264466 19.48949012 -3.51132063 17.41852297 -3.2890625 15.34765625 C-3.14049301 13.90073143 -3.14049301 13.90073143 -2.98892212 12.42457581 C-2.49667013 7.98302457 -2.01396569 4.05948315 0 0 Z " fill="#FFFFFF" transform="translate(26,18)"/>
<path d="M0 0 C4.13653 1.60475552 5.43742798 3.66080484 7.234375 7.58984375 C9.15271649 13.62870445 8.91520626 19.74653888 6.25 25.5 C4.53506518 28.40586178 3.16070901 30.59524044 0 32 C-2.73940663 32.39619517 -5.27940333 32.54199387 -8 32 C-9.32 31.01 -10.64 30.02 -12 29 C-12.33 33.62 -12.66 38.24 -13 43 C-14.65 43 -16.3 43 -18 43 C-18 29.14 -18 15.28 -18 1 C-16.35 1 -14.7 1 -13 1 C-12.67 1.66 -12.34 2.32 -12 3 C-11.319375 2.505 -10.63875 2.01 -9.9375 1.5 C-6.33167301 -0.34127336 -4.00517255 -0.3641066 0 0 Z " fill="#91D6E9" transform="translate(270,51)"/>
<path d="M0 0 C4.13653 1.60475552 5.43742798 3.66080484 7.234375 7.58984375 C9.15271649 13.62870445 8.91520626 19.74653888 6.25 25.5 C4.53506518 28.40586178 3.16070901 30.59524044 0 32 C-2.73940663 32.39619517 -5.27940333 32.54199387 -8 32 C-9.32 31.01 -10.64 30.02 -12 29 C-12.33 33.62 -12.66 38.24 -13 43 C-14.65 43 -16.3 43 -18 43 C-18 29.14 -18 15.28 -18 1 C-16.35 1 -14.7 1 -13 1 C-12.67 1.66 -12.34 2.32 -12 3 C-11.319375 2.505 -10.63875 2.01 -9.9375 1.5 C-6.33167301 -0.34127336 -4.00517255 -0.3641066 0 0 Z " fill="#91D6E9" transform="translate(202,51)"/>
<path d="M0 0 C1.65 0 3.3 0 5 0 C5 14.19 5 28.38 5 43 C3.68 43 2.36 43 1 43 C0.67 42.01 0.34 41.02 0 40 C-0.845625 40.66 -1.69125 41.32 -2.5625 42 C-6.56922989 44.3311883 -8.44297877 44.73237841 -13 44 C-16.78875095 41.64096639 -18.60315976 39.91994783 -20.375 35.8125 C-21.54088885 28.70057801 -22.27698005 22.19424697 -18 16 C-15.12638661 12.96674142 -13.67362523 12.08420315 -9.5 11.5625 C-6 12 -6 12 -1 15 C-0.67 10.05 -0.34 5.1 0 0 Z " fill="#94D6E9" transform="translate(137,39)"/>
<path d="M0 0 C3.68262785 3.15653816 5.88550455 5.70612359 6.57421875 10.65234375 C6.81019528 17.10508123 6.34067789 22.71263869 2.1875 27.875 C-1.86870182 30.8935688 -5.6972096 31.40936261 -10.6328125 31.2265625 C-15.08909075 30.50780794 -17.84974864 28.19390042 -20.44921875 24.6328125 C-22.91993734 19.63473993 -22.44200816 14.31477157 -21.8125 8.875 C-20.78916082 6.2113083 -19.79278171 5.02502015 -17.8125 2.875 C-17.296875 2.276875 -16.78125 1.67875 -16.25 1.0625 C-11.93922241 -2.49857714 -4.89611974 -1.9584479 0 0 Z " fill="#92D5E9" transform="translate(237.8125,52.125)"/>
<path d="M0 0 C3.68262785 3.15653816 5.88550455 5.70612359 6.57421875 10.65234375 C6.81019528 17.10508123 6.34067789 22.71263869 2.1875 27.875 C-1.86870182 30.8935688 -5.6972096 31.40936261 -10.6328125 31.2265625 C-15.08909075 30.50780794 -17.84974864 28.19390042 -20.44921875 24.6328125 C-22.91993734 19.63473993 -22.44200816 14.31477157 -21.8125 8.875 C-20.78916082 6.2113083 -19.79278171 5.02502015 -17.8125 2.875 C-17.296875 2.276875 -16.78125 1.67875 -16.25 1.0625 C-11.93922241 -2.49857714 -4.89611974 -1.9584479 0 0 Z " fill="#92D5E9" transform="translate(103.8125,52.125)"/>
<path d="M0 0 C16 0 16 0 22 3 C24.668947 7.0034205 24.83267518 10.29249972 24 15 C21.625 18.0625 21.625 18.0625 19 20 C18.34 20 17.68 20 17 20 C17 20.66 17 21.32 17 22 C17.99 22.33 18.98 22.66 20 23 C21.5703125 25.546875 21.5703125 25.546875 23.125 28.75 C23.90230469 30.32007813 23.90230469 30.32007813 24.6953125 31.921875 C25.85769585 34.66426447 26.5547956 37.06816616 27 40 C25.02 40 23.04 40 21 40 C20.43732422 38.53626953 20.43732422 38.53626953 19.86328125 37.04296875 C19.3472053 35.75747048 18.83023063 34.47233275 18.3125 33.1875 C18.06822266 32.54490234 17.82394531 31.90230469 17.57226562 31.24023438 C15.81037731 26.93587431 14.2928058 24.83425735 10 23 C8.35 22.67 6.7 22.34 5 22 C5 27.94 5 33.88 5 40 C3.35 40 1.7 40 0 40 C0 26.8 0 13.6 0 0 Z " fill="#95D6E9" transform="translate(307,42)"/>
<path d="M0 0 C4.18531174 1.72871572 6.23950002 3.83039478 8 8 C8.2869669 10.76009981 8.18624596 13.20631063 8 16 C7 17 7 17 5.14233398 17.11352539 C4.35157471 17.10828857 3.56081543 17.10305176 2.74609375 17.09765625 C1.89208984 17.09443359 1.03808594 17.09121094 0.15820312 17.08789062 C-1.18854492 17.07532227 -1.18854492 17.07532227 -2.5625 17.0625 C-3.46419922 17.05798828 -4.36589844 17.05347656 -5.29492188 17.04882812 C-7.53001314 17.03700225 -9.76497437 17.0205222 -12 17 C-11.731875 18.27875 -11.46375 19.5575 -11.1875 20.875 C-11.03667969 21.59429687 -10.88585937 22.31359375 -10.73046875 23.0546875 C-10.07691162 25.37046549 -10.07691162 25.37046549 -7 27 C-2.21908604 27.27582196 2.28311193 26.77010418 7 26 C7 27.32 7 28.64 7 30 C1.62854637 32.42832443 -3.18007372 32.68369178 -9 32 C-12.71879055 30.27341867 -14.43742514 28.75009982 -16.875 25.5 C-18.93120142 19.10292892 -19.26019303 12.61373369 -16.3125 6.5 C-15.549375 5.675 -14.78625 4.85 -14 4 C-13.278125 3.21625 -12.55625 2.4325 -11.8125 1.625 C-7.83949527 -0.67051384 -4.48534737 -0.66872452 0 0 Z " fill="#92D5E9" transform="translate(357,51)"/>
<path d="M0 0 C4.18531174 1.72871572 6.23950002 3.83039478 8 8 C8.2869669 10.76009981 8.18624596 13.20631063 8 16 C7 17 7 17 5.14233398 17.11352539 C4.35157471 17.10828857 3.56081543 17.10305176 2.74609375 17.09765625 C1.89208984 17.09443359 1.03808594 17.09121094 0.15820312 17.08789062 C-1.18854492 17.07532227 -1.18854492 17.07532227 -2.5625 17.0625 C-3.46419922 17.05798828 -4.36589844 17.05347656 -5.29492188 17.04882812 C-7.53001314 17.03700225 -9.76497437 17.0205222 -12 17 C-11.731875 18.27875 -11.46375 19.5575 -11.1875 20.875 C-11.03667969 21.59429687 -10.88585937 22.31359375 -10.73046875 23.0546875 C-10.07691162 25.37046549 -10.07691162 25.37046549 -7 27 C-2.21908604 27.27582196 2.28311193 26.77010418 7 26 C7 27.32 7 28.64 7 30 C1.62854637 32.42832443 -3.18007372 32.68369178 -9 32 C-12.71879055 30.27341867 -14.43742514 28.75009982 -16.875 25.5 C-18.93120142 19.10292892 -19.26019303 12.61373369 -16.3125 6.5 C-15.549375 5.675 -14.78625 4.85 -14 4 C-13.278125 3.21625 -12.55625 2.4325 -11.8125 1.625 C-7.83949527 -0.67051384 -4.48534737 -0.66872452 0 0 Z " fill="#92D5E9" transform="translate(168,51)"/>
<path d="M0 0 C2.96912882 1.38980498 4.69657028 2.69657028 7 5 C7.22705078 7.61376953 7.22705078 7.61376953 7.1953125 10.8828125 C7.18886719 12.04941406 7.18242187 13.21601562 7.17578125 14.41796875 C7.15902344 15.64128906 7.14226562 16.86460938 7.125 18.125 C7.11597656 19.35605469 7.10695313 20.58710937 7.09765625 21.85546875 C7.07402548 24.90383815 7.04108054 27.95182382 7 31 C5.68 31 4.36 31 3 31 C2.67 30.34 2.34 29.68 2 29 C1.319375 29.495 0.63875 29.99 -0.0625 30.5 C-3.72431906 32.36986505 -5.93214595 32.50848176 -10 32 C-12.75329021 30.20437595 -14.52627461 28.94745078 -16 26 C-16.40203796 23.05172163 -16.54942715 20.91854037 -14.98828125 18.30859375 C-12.80985617 15.59373967 -11.33499379 14.1116646 -8 13 C-6.27204648 12.93197033 -4.54164635 12.91504355 -2.8125 12.9375 C-1.91144531 12.94652344 -1.01039063 12.95554687 -0.08203125 12.96484375 C0.60503906 12.97644531 1.29210937 12.98804688 2 13 C1.1395861 8.66770285 1.1395861 8.66770285 -1 5 C-5.8215583 4.71637892 -9.50492881 5.24582588 -14 7 C-13.75 4.625 -13.75 4.625 -13 2 C-8.89502835 -0.65509204 -4.73064014 -0.5659873 0 0 Z " fill="#93D6E9" transform="translate(387,51)"/>
<path d="M0 0 C3.49898401 3.3823512 3.90190089 6.67566205 4.25 11.375 C3.97341062 15.38554599 3.18538291 17.64387625 1 21 C-1.52460691 23.00227445 -2.76046431 23.00998065 -6 22.875 C-9.55384644 21.83846146 -10.73644466 20.90823883 -13 18 C-13.95115493 12.81805855 -14.45050419 6.70624103 -11.89453125 1.9375 C-8.14507235 -1.60086336 -4.66355425 -1.49585702 0 0 Z " fill="#05A4E8" transform="translate(235,56)"/>
<path d="M0 0 C3.49898401 3.3823512 3.90190089 6.67566205 4.25 11.375 C3.97341062 15.38554599 3.18538291 17.64387625 1 21 C-1.52460691 23.00227445 -2.76046431 23.00998065 -6 22.875 C-9.55384644 21.83846146 -10.73644466 20.90823883 -13 18 C-13.95115493 12.81805855 -14.45050419 6.70624103 -11.89453125 1.9375 C-8.14507235 -1.60086336 -4.66355425 -1.49585702 0 0 Z " fill="#05A4E8" transform="translate(101,56)"/>
<path d="M0 0 C3 1.25 3 1.25 5 3 C5 4.32 5 5.64 5 7 C4.15308594 6.76023437 4.15308594 6.76023437 3.2890625 6.515625 C0.93030048 5.98429977 -1.20964222 5.79846872 -3.625 5.75 C-4.40101563 5.72421875 -5.17703125 5.6984375 -5.9765625 5.671875 C-6.64429688 5.78015625 -7.31203125 5.8884375 -8 6 C-10.37310654 9.55965981 -10.26915041 11.21962224 -10.25 15.4375 C-10.25515625 16.57058594 -10.2603125 17.70367187 -10.265625 18.87109375 C-10.01398568 21.83525691 -9.54596941 23.50313671 -8 26 C-3.07872966 26.16682272 0.50343896 26.24828052 5 24 C5.3125 26.3125 5.3125 26.3125 5 29 C2.12229043 31.69205089 -0.61676124 32.26120383 -4.4375 32.5 C-7.81107644 32.38754745 -9.78676738 31.85499355 -12.4375 29.75 C-17.40295432 24.42121975 -17.38192423 20.27181413 -17.24609375 13.13671875 C-16.8221406 7.73299839 -15.32037379 5.16684195 -11.3125 1.625 C-6.98517492 -0.49783872 -4.78843042 -0.53204782 0 0 Z " fill="#8ED4E9" transform="translate(419,51)"/>
<path d="M0 0 C3.62724312 1.6322594 5.21228375 2.79147061 7.5 6.125 C8.48435222 11.81849322 8.63404416 16.47253565 5.3125 21.3125 C0.7 24.285 0.7 24.285 -2.5 24.125 C-5.41762587 22.50409674 -6.14136194 22.04745819 -7.5 19.125 C-8.28865277 13.83156259 -8.85381339 8.03708023 -6.54296875 3.06640625 C-4.57029273 0.85575661 -2.92929913 0.14646496 0 0 Z " fill="#04A4E8" transform="translate(129.5,54.875)"/>
<path d="M0 0 C2.75410565 1.37705282 3.67981815 2.47698145 5.25 5.125 C5.6484375 8.18359375 5.6484375 8.18359375 5.625 11.5625 C5.63273437 12.67496094 5.64046875 13.78742188 5.6484375 14.93359375 C5.20949033 18.4494745 4.44390051 20.357232 2.25 23.125 C-1.97075046 23.90662045 -3.9976099 23.5732324 -7.6875 21.375 C-10.8203377 16.43840726 -10.9660847 11.80006191 -9.75 6.125 C-7.28069603 2.34194378 -4.56017949 0.20728089 0 0 Z " fill="#04A3E8" transform="translate(266.75,54.875)"/>
<path d="M0 0 C2.75410565 1.37705282 3.67981815 2.47698145 5.25 5.125 C5.6484375 8.18359375 5.6484375 8.18359375 5.625 11.5625 C5.63273438 12.67496094 5.64046875 13.78742188 5.6484375 14.93359375 C5.20949033 18.4494745 4.44390051 20.357232 2.25 23.125 C-1.97075046 23.90662045 -3.9976099 23.5732324 -7.6875 21.375 C-10.8203377 16.43840726 -10.9660847 11.80006191 -9.75 6.125 C-7.28069603 2.34194378 -4.56017949 0.20728089 0 0 Z " fill="#04A3E8" transform="translate(198.75,54.875)"/>
<path d="M0 0 C1.65 0 3.3 0 5 0 C5 2.64 5 5.28 5 8 C7.97 8 10.94 8 14 8 C14 9.32 14 10.64 14 12 C11.03 12 8.06 12 5 12 C5.11353223 15.2924348 5.24028336 18.58342332 5.375 21.875 C5.4059375 22.81214844 5.436875 23.74929687 5.46875 24.71484375 C5.50742187 25.61074219 5.54609375 26.50664063 5.5859375 27.4296875 C5.6173584 28.25710449 5.6487793 29.08452148 5.68115234 29.93701172 C5.82599137 32.21986085 5.82599137 32.21986085 8 34 C11.08347826 34.16681109 11.08347826 34.16681109 14 34 C14 35.32 14 36.64 14 38 C10.94306678 39.52846661 8.37015453 39.23242445 5 39 C1.8149643 37.23984869 1.16703028 36.50109084 0 33 C-0.08143855 31.37280518 -0.1075302 29.74248281 -0.09765625 28.11328125 C-0.09443359 27.17548828 -0.09121094 26.23769531 -0.08789062 25.27148438 C-0.07951172 24.29501953 -0.07113281 23.31855469 -0.0625 22.3125 C-0.05798828 21.32443359 -0.05347656 20.33636719 -0.04882812 19.31835938 C-0.03704303 16.87884526 -0.02059011 14.43945311 0 12 C-1.65 12 -3.3 12 -5 12 C-5 10.68 -5 9.36 -5 8 C-3.35 8 -1.7 8 0 8 C0 5.36 0 2.72 0 0 Z " fill="#90D7E9" transform="translate(432,44)"/>
<path d="M0 0 C8 0 8 0 12 2 C13 3 13 3 13.3125 6.875 C13.25238273 9.67045283 13.22445418 10.68771592 11.5625 13 C7.65036006 14.52668876 4.18295601 14.18454218 0 14 C0 9.38 0 4.76 0 0 Z " fill="#07A4E8" transform="translate(312,46)"/>
<path d="M0 0 C1.21236328 0.02707031 1.21236328 0.02707031 2.44921875 0.0546875 C3.37154297 0.08949219 3.37154297 0.08949219 4.3125 0.125 C4.625 3.375 4.625 3.375 4.3125 7.125 C1.82971518 9.89153165 0.31635847 10.98492673 -3.375 11.5 C-5.6875 11.125 -5.6875 11.125 -7.6875 9.125 C-8 5.625 -8 5.625 -7.6875 2.125 C-4.48369983 -0.01086678 -3.66810033 -0.10632175 0 0 Z " fill="#03A3E8" transform="translate(384.6875,67.875)"/>
<path d="M0 0 C3.375 1 3.375 1 5.3125 2.8125 C6.375 5 6.375 5 6.375 9 C1.425 9 -3.525 9 -8.625 9 C-8.625 4 -8.625 4 -6.5625 1.625 C-3.625 0 -3.625 0 0 0 Z " fill="#04A3E8" transform="translate(353.625,55)"/>
<path d="M0 0 C3.375 1 3.375 1 5.3125 2.8125 C6.375 5 6.375 5 6.375 9 C1.425 9 -3.525 9 -8.625 9 C-8.625 4 -8.625 4 -6.5625 1.625 C-3.625 0 -3.625 0 0 0 Z " fill="#04A3E8" transform="translate(164.625,55)"/>
<path d="M0 0 C5.28 0 10.56 0 16 0 C16 1.32 16 2.64 16 4 C10.72 4 5.44 4 0 4 C0 2.68 0 1.36 0 0 Z " fill="#90D5E9" transform="translate(283,64)"/>
</svg>
